<svg width="200" height="44" viewBox="0 0 200 44" fill="none" xmlns="http://www.w3.org/2000/svg">
<path d="M16.7447 7.28373C17.6597 6.69358 18.8462 6.68895 19.7706 7.27193L32.4904 15.2936C34.1578 16.3451 34.2015 18.7155 32.5738 19.8128L19.8313 28.4031C18.8775 29.0462 17.6134 29.0381 16.6631 28.3829L4.22524 19.8076C2.62399 18.7036 2.65463 16.3714 4.28419 15.3204L16.7447 7.28373Z" stroke="#1C64F2" stroke-width="1.82927" stroke-linejoin="round"/>
<path d="M16.7447 15.3199C17.6597 14.7297 18.8462 14.7251 19.7706 15.3081L32.4904 23.3297C34.1578 24.3812 34.2015 26.7517 32.5738 27.849L19.8313 36.4393C18.8775 37.0823 17.6134 37.0742 16.6631 36.419L4.22524 27.8437C2.62399 26.7397 2.65463 24.4075 4.28419 23.3565L16.7447 15.3199Z" stroke="#1C64F2" stroke-width="1.82927" stroke-linejoin="round"/>
<path d="M16.7447 11.3018C17.6597 10.7116 18.8462 10.707 19.7706 11.29L32.4904 19.3116C34.1578 20.3631 34.2015 22.7336 32.5738 23.8309L19.8313 32.4212C18.8775 33.0642 17.6134 33.0561 16.6631 32.4009L4.22524 23.8256C2.62399 22.7217 2.65463 20.3895 4.28419 19.3385L16.7447 11.3018Z" stroke="#1C64F2" stroke-width="1.82927" stroke-linejoin="round"/>
<path d="M50.6765 30.5H47.6936L54.3961 11.8747H57.6428L64.3454 30.5H61.3624L56.0968 15.2578H55.9513L50.6765 30.5ZM51.1767 23.2063H60.8531V25.5708H51.1767V23.2063ZM75.6656 24.7069V16.531H78.3939V30.5H75.7202V28.0809H75.5747C75.2533 28.8266 74.738 29.4481 74.0286 29.9452C73.3253 30.4363 72.4492 30.6819 71.4003 30.6819C70.503 30.6819 69.7088 30.4848 69.0176 30.0908C68.3325 29.6906 67.7929 29.0995 67.3988 28.3173C67.0108 27.5352 66.8168 26.5682 66.8168 25.4162V16.531H69.536V25.0888C69.536 26.0407 69.7997 26.7986 70.3272 27.3624C70.8547 27.9263 71.5398 28.2082 72.3825 28.2082C72.8918 28.2082 73.3981 28.0809 73.9013 27.8263C74.4106 27.5716 74.8319 27.1866 75.1654 26.6713C75.5049 26.1559 75.6717 25.5011 75.6656 24.7069ZM88.5682 16.531V18.7137H80.9381V16.531H88.5682ZM82.9843 13.1843H85.7035V26.3984C85.7035 26.9259 85.7823 27.323 85.94 27.5898C86.0976 27.8505 86.3007 28.0294 86.5493 28.1264C86.8039 28.2173 87.0798 28.2628 87.3769 28.2628C87.5951 28.2628 87.7861 28.2476 87.9498 28.2173C88.1135 28.187 88.2408 28.1627 88.3318 28.1446L88.8229 30.3909C88.6652 30.4515 88.4409 30.5121 88.1499 30.5728C87.8589 30.6394 87.4951 30.6758 87.0586 30.6819C86.3432 30.694 85.6762 30.5667 85.0578 30.2999C84.4394 30.0332 83.9392 29.6209 83.5572 29.0631C83.1753 28.5053 82.9843 27.805 82.9843 26.9623V13.1843ZM97.3102 30.7819C96.0006 30.7819 94.8578 30.4818 93.8816 29.8816C92.9055 29.2814 92.1476 28.4416 91.608 27.3624C91.0684 26.2832 90.7986 25.0222 90.7986 23.5792C90.7986 22.1301 91.0684 20.863 91.608 19.7777C92.1476 18.6925 92.9055 17.8497 93.8816 17.2495C94.8578 16.6493 96.0006 16.3492 97.3102 16.3492C98.6198 16.3492 99.7627 16.6493 100.739 17.2495C101.715 17.8497 102.473 18.6925 103.012 19.7777C103.552 20.863 103.822 22.1301 103.822 23.5792C103.822 25.0222 103.552 26.2832 103.012 27.3624C102.473 28.4416 101.715 29.2814 100.739 29.8816C99.7627 30.4818 98.6198 30.7819 97.3102 30.7819ZM97.3193 28.4992C98.1681 28.4992 98.8714 28.2749 99.4292 27.8263C99.987 27.3776 100.399 26.7804 100.666 26.0347C100.939 25.2889 101.075 24.4674 101.075 23.5701C101.075 22.6788 100.939 21.8603 100.666 21.1146C100.399 20.3628 99.987 19.7595 99.4292 19.3048C98.8714 18.8501 98.1681 18.6227 97.3193 18.6227C96.4644 18.6227 95.7551 18.8501 95.1912 19.3048C94.6334 19.7595 94.2181 20.3628 93.9453 21.1146C93.6785 21.8603 93.5451 22.6788 93.5451 23.5701C93.5451 24.4674 93.6785 25.2889 93.9453 26.0347C94.2181 26.7804 94.6334 27.3776 95.1912 27.8263C95.7551 28.2749 96.4644 28.4992 97.3193 28.4992ZM122.545 17.9316H119.707C119.598 17.3253 119.395 16.7917 119.098 16.331C118.801 15.8702 118.437 15.4791 118.007 15.1578C117.576 14.8365 117.094 14.5939 116.561 14.4302C116.033 14.2665 115.472 14.1847 114.878 14.1847C113.805 14.1847 112.844 14.4545 111.995 14.9941C111.153 15.5337 110.486 16.3249 109.995 17.3677C109.51 18.4105 109.267 19.6838 109.267 21.1874C109.267 22.7031 109.51 23.9824 109.995 25.0252C110.486 26.068 111.156 26.8562 112.004 27.3897C112.853 27.9233 113.808 28.19 114.869 28.19C115.457 28.19 116.015 28.1112 116.543 27.9536C117.076 27.7899 117.558 27.5504 117.989 27.2351C118.419 26.9198 118.783 26.5349 119.08 26.0801C119.383 25.6194 119.592 25.0919 119.707 24.4977L122.545 24.5068C122.393 25.4223 122.099 26.2651 121.663 27.035C121.232 27.799 120.677 28.4598 119.998 29.0176C119.325 29.5693 118.555 29.9968 117.688 30.2999C116.821 30.6031 115.876 30.7546 114.851 30.7546C113.238 30.7546 111.801 30.3727 110.54 29.6088C109.279 28.8388 108.285 27.7383 107.557 26.3075C106.836 24.8766 106.475 23.1699 106.475 21.1874C106.475 19.1987 106.839 17.492 107.566 16.0672C108.294 14.6364 109.288 13.539 110.549 12.7751C111.81 12.0051 113.244 11.6201 114.851 11.6201C115.839 11.6201 116.761 11.7626 117.616 12.0475C118.477 12.3264 119.25 12.7387 119.935 13.2843C120.62 13.8239 121.187 14.4848 121.635 15.2669C122.084 16.043 122.387 16.9312 122.545 17.9316ZM131.573 30.7819C130.264 30.7819 129.121 30.4818 128.145 29.8816C127.169 29.2814 126.411 28.4416 125.871 27.3624C125.332 26.2832 125.062 25.0222 125.062 23.5792C125.062 22.1301 125.332 20.863 125.871 19.7777C126.411 18.6925 127.169 17.8497 128.145 17.2495C129.121 16.6493 130.264 16.3492 131.573 16.3492C132.883 16.3492 134.026 16.6493 135.002 17.2495C135.978 17.8497 136.736 18.6925 137.275 19.7777C137.815 20.863 138.085 22.1301 138.085 23.5792C138.085 25.0222 137.815 26.2832 137.275 27.3624C136.736 28.4416 135.978 29.2814 135.002 29.8816C134.026 30.4818 132.883 30.7819 131.573 30.7819ZM131.582 28.4992C132.431 28.4992 133.134 28.2749 133.692 27.8263C134.25 27.3776 134.662 26.7804 134.929 26.0347C135.202 25.2889 135.338 24.4674 135.338 23.5701C135.338 22.6788 135.202 21.8603 134.929 21.1146C134.662 20.3628 134.25 19.7595 133.692 19.3048C133.134 18.8501 132.431 18.6227 131.582 18.6227C130.727 18.6227 130.018 18.8501 129.454 19.3048C128.896 19.7595 128.481 20.3628 128.208 21.1146C127.942 21.8603 127.808 22.6788 127.808 23.5701C127.808 24.4674 127.942 25.2889 128.208 26.0347C128.481 26.7804 128.896 27.3776 129.454 27.8263C130.018 28.2749 130.727 28.4992 131.582 28.4992ZM146.349 30.7728C145.222 30.7728 144.215 30.4848 143.33 29.9089C142.451 29.3268 141.76 28.4992 141.257 27.4261C140.759 26.3469 140.511 25.0525 140.511 23.5428C140.511 22.0331 140.762 20.7417 141.266 19.6686C141.775 18.5955 142.472 17.7739 143.357 17.204C144.243 16.6341 145.246 16.3492 146.368 16.3492C147.235 16.3492 147.932 16.4947 148.459 16.7857C148.993 17.0706 149.405 17.4041 149.696 17.7861C149.993 18.168 150.224 18.5045 150.387 18.7955H150.551V11.8747H153.27V30.5H150.615V28.3264H150.387C150.224 28.6235 149.987 28.9631 149.678 29.345C149.375 29.727 148.956 30.0604 148.423 30.3454C147.889 30.6304 147.198 30.7728 146.349 30.7728ZM146.95 28.4538C147.732 28.4538 148.393 28.2476 148.932 27.8353C149.478 27.417 149.89 26.838 150.169 26.0983C150.454 25.3586 150.596 24.4977 150.596 23.5155C150.596 22.5455 150.457 21.6966 150.178 20.9691C149.899 20.2415 149.49 19.6747 148.95 19.2684C148.411 18.8622 147.744 18.6591 146.95 18.6591C146.131 18.6591 145.449 18.8713 144.903 19.2957C144.358 19.7201 143.945 20.2991 143.667 21.0328C143.394 21.7664 143.257 22.594 143.257 23.5155C143.257 24.4492 143.397 25.2889 143.676 26.0347C143.955 26.7804 144.367 27.3715 144.912 27.8081C145.464 28.2385 146.143 28.4538 146.95 28.4538ZM157.151 30.5V16.531H159.87V30.5H157.151ZM158.524 14.3757C158.052 14.3757 157.645 14.218 157.306 13.9028C156.972 13.5814 156.806 13.1995 156.806 12.7569C156.806 12.3082 156.972 11.9263 157.306 11.611C157.645 11.2896 158.052 11.129 158.524 11.129C158.997 11.129 159.401 11.2896 159.734 11.611C160.074 11.9263 160.243 12.3082 160.243 12.7569C160.243 13.1995 160.074 13.5814 159.734 13.9028C159.401 14.218 158.997 14.3757 158.524 14.3757ZM172.377 24.7069V16.531H175.106V30.5H172.432V28.0809H172.287C171.965 28.8266 171.45 29.4481 170.74 29.9452C170.037 30.4363 169.161 30.6819 168.112 30.6819C167.215 30.6819 166.421 30.4848 165.729 30.0908C165.044 29.6906 164.505 29.0995 164.111 28.3173C163.723 27.5352 163.529 26.5682 163.529 25.4162V16.531H166.248V25.0888C166.248 26.0407 166.512 26.7986 167.039 27.3624C167.567 27.9263 168.252 28.2082 169.094 28.2082C169.604 28.2082 170.11 28.0809 170.613 27.8263C171.122 27.5716 171.544 27.1866 171.877 26.6713C172.217 26.1559 172.384 25.5011 172.377 24.7069ZM178.759 30.5V16.531H181.37V18.8046H181.542C181.833 18.0346 182.309 17.4344 182.97 17.0039C183.631 16.5674 184.422 16.3492 185.344 16.3492C186.277 16.3492 187.06 16.5674 187.69 17.0039C188.327 17.4405 188.797 18.0407 189.1 18.8046H189.245C189.579 18.0589 190.109 17.4647 190.837 17.0221C191.564 16.5735 192.431 16.3492 193.438 16.3492C194.705 16.3492 195.739 16.7463 196.539 17.5405C197.345 18.3348 197.749 19.5322 197.749 21.1328V30.5H195.029V21.3874C195.029 20.4416 194.772 19.7565 194.256 19.3321C193.741 18.9077 193.126 18.6955 192.41 18.6955C191.525 18.6955 190.837 18.9683 190.346 19.514C189.855 20.0536 189.609 20.7478 189.609 21.5966V30.5H186.899V21.2146C186.899 20.4568 186.662 19.8475 186.19 19.3867C185.717 18.9259 185.101 18.6955 184.343 18.6955C183.828 18.6955 183.352 18.8319 182.916 19.1047C182.485 19.3715 182.136 19.7444 181.87 20.2234C181.609 20.7023 181.479 21.2571 181.479 21.8876V30.5H178.759Z" fill="#1C64F2"/>
</svg>
