<svg width="379" height="289" viewBox="0 0 379 289" fill="none" xmlns="http://www.w3.org/2000/svg">
<g clip-path="url(#clip0_84_8593)">
<path d="M182.588 107.42C184.661 105.139 188.084 105.805 190.362 107.415C193.294 109.488 194.132 113.272 194.565 116.626C195.297 122.305 195.513 130.332 201.959 132.706C204.938 133.802 208.347 132.897 210.862 131.116C213.61 129.17 215.324 126.178 216.472 123.077C217.861 119.322 218.666 115.305 219.348 111.37C220.045 107.346 220.502 103.279 220.707 99.2C220.908 95.2095 220.778 91.2453 220.619 87.2574C220.495 84.1439 220.447 80.8743 221.5 77.897C222.564 74.8901 225.036 72.6029 228.287 72.3012C231.442 72.0084 234.692 73.3376 236.975 75.4828C242.452 80.63 242.71 89.033 243.934 95.9345C244.577 99.5606 245.517 103.23 247.489 106.384C249.11 108.979 251.362 111.154 253.957 112.768C259.191 116.023 265.861 116.973 271.668 114.737C277.339 112.553 281.903 107.781 283.878 102.044C284.366 100.627 284.667 99.1639 284.82 97.6749C284.891 96.9826 283.807 96.9876 283.736 97.6749C283.087 104.003 279.021 109.734 273.449 112.736C267.715 115.824 260.772 115.432 255.17 112.23C252.416 110.656 250.02 108.436 248.356 105.729C246.337 102.445 245.473 98.6182 244.844 94.8606C243.708 88.0738 243.193 80.2815 238.101 75.0706C234.152 71.0293 226.886 69.4075 222.642 73.909C218.272 78.5442 219.582 86.0107 219.721 91.7646C219.926 100.191 219.056 108.638 217.128 116.844C216.289 120.416 215.324 124.1 213.218 127.163C211.293 129.962 208.147 132.132 204.644 132.098C201.15 132.063 198.696 129.498 197.456 126.44C196.147 123.214 196.062 119.73 195.609 116.325C195.193 113.199 194.436 109.739 192.089 107.451C190.264 105.672 187.557 104.527 184.988 104.936C183.754 105.133 182.66 105.732 181.821 106.655C181.354 107.169 182.118 107.937 182.588 107.42Z" fill="#1C64F2"/>
<path d="M339.176 223.141C338.566 222.114 335.928 223.214 335.443 222.282C334.959 221.353 337.411 219.937 338.811 216.704C339.064 216.121 340.656 212.446 339.477 211.312C337.244 209.163 327.024 218.032 323.448 215.13C322.663 214.493 322.114 213.221 319.739 211.157C318.794 210.335 318.222 209.964 317.669 210.102C316.885 210.298 316.822 211.347 315.981 213.41C314.719 216.504 313.973 216.317 313.237 218.786C312.691 220.618 312.816 221.683 312.174 221.891C311.265 222.184 310.428 220.241 309.276 220.415C308.101 220.593 307.39 222.855 307.166 224.55C306.745 227.729 307.914 229.827 308.561 232.033C309.265 234.431 309.683 238.077 308.057 243.238L291.965 288.531C295.518 279.237 305.805 253.76 310.127 244.292C311.375 241.559 312.753 238.787 315.582 237.693C318.305 236.64 322.046 237.269 326.814 236.121C327.371 235.987 328.917 235.594 329.111 234.686C329.272 233.935 328.363 233.516 328.503 232.813C328.69 231.87 330.478 231.858 332.675 230.77C334.224 230.003 335.189 229.09 336.019 228.306C336.269 228.069 339.988 224.509 339.176 223.141Z" fill="#F2F2F2"/>
<path d="M275.865 246.986C275.184 246.988 274.964 248.599 274.366 248.568C273.77 248.537 273.782 246.927 272.597 245.307C272.383 245.015 271.037 243.174 270.14 243.425C268.44 243.9 269.849 251.469 267.391 252.386C266.851 252.587 266.068 252.489 264.369 253.058C263.692 253.284 263.345 253.457 263.254 253.768C263.123 254.209 263.621 254.543 264.392 255.55C265.548 257.062 265.24 257.374 266.241 258.447C266.984 259.243 267.543 259.489 267.46 259.864C267.342 260.394 266.145 260.244 265.899 260.859C265.647 261.486 266.554 262.488 267.321 263.086C268.762 264.21 270.13 264.243 271.401 264.562C272.782 264.908 274.694 265.755 276.76 268.042L294.37 289C290.829 284.577 281.28 272.182 277.875 267.331C276.893 265.931 275.928 264.455 276.207 262.753C276.475 261.113 277.863 259.461 278.675 256.792C278.77 256.48 279.023 255.609 278.633 255.251C278.311 254.956 277.843 255.281 277.537 255.009C277.128 254.645 277.638 253.765 277.737 252.374C277.807 251.393 277.638 250.657 277.491 250.024C277.447 249.833 276.771 246.982 275.865 246.986Z" fill="#F2F2F2"/>
<path d="M289.445 250.031L289.035 246.373L289.223 246.096C290.09 244.814 290.532 243.562 290.537 242.374C290.538 242.185 290.529 241.996 290.52 241.803C290.485 241.04 290.441 240.092 290.935 238.987C291.213 238.37 291.993 236.943 293.165 237.12C293.48 237.164 293.719 237.309 293.9 237.478C293.927 237.436 293.954 237.394 293.983 237.348C294.348 236.791 294.637 236.553 294.916 236.324C295.13 236.147 295.35 235.965 295.697 235.534C295.849 235.345 295.967 235.179 296.067 235.04C296.37 234.618 296.766 234.114 297.465 234.123C298.211 234.158 298.601 234.775 298.86 235.183C299.323 235.91 299.532 236.435 299.671 236.783C299.721 236.91 299.779 237.053 299.808 237.097C300.048 237.45 302.003 237.12 302.739 237C304.393 236.724 305.824 236.486 306.413 237.528C306.836 238.273 306.522 239.258 305.452 240.535C305.119 240.933 304.765 241.235 304.45 241.471C304.711 241.627 304.944 241.865 305.039 242.239C305.261 243.126 304.499 244.014 302.772 244.883C302.344 245.1 301.767 245.39 300.958 245.529C300.577 245.595 300.234 245.611 299.94 245.619C299.934 245.789 299.895 245.973 299.791 246.162C299.488 246.718 298.857 246.983 297.906 246.919C296.859 246.864 295.997 246.665 295.237 246.49C294.574 246.338 294.002 246.209 293.553 246.239C292.72 246.306 292.078 246.972 291.325 247.836L289.445 250.031Z" fill="#F2F2F2"/>
<path d="M291.348 228.256L287.911 229.579L287.595 229.469C286.133 228.956 284.809 228.847 283.657 229.143C283.473 229.19 283.293 229.246 283.109 229.304C282.379 229.532 281.472 229.815 280.276 229.617C279.609 229.505 278.029 229.114 277.903 227.936C277.866 227.62 277.945 227.353 278.064 227.135C278.016 227.12 277.968 227.104 277.916 227.088C277.285 226.876 276.981 226.657 276.688 226.446C276.462 226.284 276.23 226.117 275.725 225.892C275.504 225.793 275.313 225.72 275.152 225.659C274.667 225.473 274.079 225.218 273.911 224.541C273.755 223.811 274.253 223.278 274.582 222.924C275.17 222.293 275.624 221.957 275.926 221.735C276.036 221.654 276.16 221.562 276.196 221.523C276.477 221.201 275.661 219.396 275.358 218.715C274.672 217.187 274.078 215.865 274.938 215.031C275.552 214.434 276.586 214.487 278.093 215.196C278.563 215.418 278.945 215.684 279.254 215.928C279.338 215.636 279.51 215.35 279.848 215.164C280.65 214.724 281.704 215.236 282.983 216.683C283.302 217.042 283.729 217.527 284.069 218.273C284.229 218.624 284.331 218.952 284.414 219.233C284.58 219.196 284.768 219.188 284.977 219.24C285.593 219.392 286.009 219.934 286.189 220.869C286.401 221.895 286.427 222.778 286.45 223.557C286.472 224.237 286.492 224.822 286.635 225.248C286.911 226.036 287.718 226.487 288.746 226.996L291.348 228.256Z" fill="#F2F2F2"/>
<path d="M289.445 217.481L289.035 213.824L289.223 213.546C290.09 212.264 290.532 211.012 290.537 209.824C290.538 209.635 290.529 209.446 290.52 209.253C290.485 208.491 290.441 207.542 290.935 206.437C291.213 205.82 291.993 204.394 293.165 204.57C293.48 204.614 293.719 204.759 293.9 204.929C293.927 204.886 293.954 204.844 293.983 204.798C294.348 204.242 294.637 204.003 294.916 203.774C295.13 203.597 295.35 203.415 295.697 202.984C295.849 202.795 295.967 202.629 296.067 202.49C296.37 202.068 296.766 201.565 297.465 201.573C298.211 201.609 298.601 202.225 298.86 202.633C299.323 203.36 299.532 203.885 299.671 204.233C299.721 204.36 299.779 204.503 299.808 204.547C300.048 204.9 302.003 204.57 302.739 204.45C304.393 204.175 305.824 203.936 306.413 204.978C306.836 205.723 306.522 206.709 305.452 207.985C305.119 208.383 304.765 208.685 304.45 208.921C304.711 209.077 304.944 209.315 305.039 209.69C305.261 210.576 304.499 211.464 302.772 212.333C302.344 212.55 301.767 212.84 300.958 212.98C300.577 213.045 300.234 213.061 299.94 213.07C299.934 213.239 299.895 213.423 299.791 213.612C299.488 214.168 298.857 214.433 297.906 214.369C296.859 214.315 295.997 214.115 295.237 213.94C294.574 213.788 294.002 213.659 293.553 213.689C292.72 213.757 292.078 214.422 291.325 215.286L289.445 217.481Z" fill="#F2F2F2"/>
<path d="M293.191 288.472L292.424 287.991L291.529 288.094C291.515 288.011 291.466 287.82 291.393 287.522C290.993 285.886 289.772 280.91 288.754 273.073C288.043 267.602 287.641 261.977 287.558 256.353C287.475 250.719 287.742 246.455 287.956 243.027C288.117 240.442 288.314 237.98 288.506 235.582C289.019 229.175 289.502 223.123 289.143 216.423C289.063 214.927 288.896 211.814 287.075 208.501C286.019 206.58 284.564 204.874 282.75 203.433L283.878 202.017C285.88 203.609 287.49 205.499 288.663 207.632C290.682 211.305 290.864 214.698 290.951 216.328C291.317 223.146 290.828 229.256 290.31 235.725C290.119 238.114 289.923 240.565 289.762 243.14C289.55 246.536 289.286 250.764 289.368 256.325C289.449 261.882 289.847 267.438 290.548 272.84C291.554 280.578 292.757 285.48 293.152 287.091C293.362 287.951 293.407 288.131 293.191 288.472Z" fill="#F2F2F2"/>
<path d="M279.431 206.306C279.357 206.306 279.282 206.304 279.206 206.299C277.664 206.216 276.237 205.294 274.962 203.56C274.365 202.744 274.059 201.814 273.449 199.958C273.354 199.671 272.895 198.22 272.615 196.223C272.433 194.918 272.456 194.372 272.714 193.89C273.002 193.353 273.467 192.979 273.99 192.726C273.967 192.553 273.986 192.375 274.061 192.193C274.369 191.439 275.189 191.538 275.633 191.585C275.858 191.613 276.138 191.651 276.44 191.635C276.916 191.612 277.171 191.47 277.558 191.258C277.929 191.055 278.389 190.803 279.072 190.663C280.419 190.383 281.548 190.764 281.92 190.889C283.878 191.541 284.843 193.061 285.96 194.822C286.183 195.175 286.948 196.461 287.452 198.223C287.816 199.495 287.765 200.06 287.656 200.48C287.433 201.344 286.907 201.838 285.571 202.93C284.177 204.072 283.477 204.644 282.876 204.992C281.476 205.799 280.598 206.306 279.431 206.306Z" fill="#F2F2F2"/>
<path d="M241.131 63.0227H216.412C215.788 63.0227 215.281 62.5161 215.281 61.8935C215.281 61.271 215.788 60.7646 216.412 60.7646H241.131C241.754 60.7646 242.261 61.271 242.261 61.8935C242.261 62.5161 241.754 63.0227 241.131 63.0227Z" fill="#E6E6E6"/>
<path d="M279.416 128.689H254.696C254.073 128.689 253.566 128.183 253.566 127.56C253.566 126.937 254.073 126.431 254.696 126.431H279.416C280.039 126.431 280.546 126.937 280.546 127.56C280.546 128.183 280.039 128.689 279.416 128.689Z" fill="#E6E6E6"/>
<path d="M299.642 173.429H274.922C274.299 173.429 273.792 172.923 273.792 172.3C273.792 171.678 274.299 171.171 274.922 171.171H299.642C300.265 171.171 300.772 171.678 300.772 172.3C300.772 172.923 300.265 173.429 299.642 173.429Z" fill="#E6E6E6"/>
<path d="M186.954 38.4875H162.234C161.611 38.4875 161.104 37.9809 161.104 37.3584C161.104 36.7358 161.611 36.2295 162.234 36.2295H186.954C187.577 36.2295 188.084 36.7358 188.084 37.3584C188.084 37.9809 187.577 38.4875 186.954 38.4875Z" fill="#E6E6E6"/>
<path d="M0 287.631C0 288.107 0.382872 288.49 0.85965 288.49H378.14C378.617 288.49 379 288.107 379 287.631C379 287.155 378.617 286.772 378.14 286.772H0.85965C0.382872 286.772 0 287.155 0 287.631Z" fill="#CCCCCC"/>
<path d="M286.956 160.328H174.918C174.519 160.328 174.195 160.005 174.195 159.606V52.8076C174.195 52.4087 174.519 52.0859 174.918 52.0859C175.317 52.0859 175.64 52.4087 175.64 52.8076V96.3845C175.64 130.902 203.651 158.885 238.205 158.885H286.956C287.355 158.885 287.678 159.208 287.678 159.606C287.678 160.005 287.354 160.328 286.956 160.328Z" fill="#E6E6E6"/>
<path d="M198.512 117.406H173.792C173.169 117.406 172.662 116.899 172.662 116.277C172.662 115.654 173.169 115.148 173.792 115.148H198.512C199.135 115.148 199.642 115.654 199.642 116.277C199.642 116.899 199.135 117.406 198.512 117.406Z" fill="#E6E6E6"/>
<path d="M174.001 120.619C177.922 119.325 180.432 116.256 179.607 113.764C178.783 111.272 174.937 110.3 171.015 111.595C169.442 112.09 168.01 112.955 166.839 114.117L150.298 119.806L153.136 127.504L169.142 121.078C170.775 121.315 172.441 121.157 174.001 120.619Z" fill="#FFB6B6"/>
<path d="M88.9708 164.736C89.1047 168.859 91.3423 172.131 93.9684 172.046C96.5945 171.96 98.6141 168.549 98.4797 164.426C98.4486 162.778 98.0229 161.161 97.2382 159.711L96.4503 142.252L88.2568 142.796L89.9034 159.95C89.2144 161.448 88.8946 163.089 88.9708 164.736Z" fill="#FFB6B6"/>
<path d="M107.887 282.375L115.2 282.375L117.074 254.008L107.885 254.195L107.887 282.375Z" fill="#FFB6B6"/>
<path d="M132.944 282.21C133.171 282.593 133.292 283.829 133.292 284.275C133.292 285.644 132.18 286.755 130.809 286.755H108.16C107.225 286.755 106.467 285.997 106.467 285.063V284.121C106.467 284.121 105.346 281.29 107.653 277.8C107.653 277.8 110.52 280.533 114.804 276.253L116.068 273.967L125.212 280.648L130.281 281.271C131.39 281.407 132.373 281.25 132.944 282.21Z" fill="#2F2E41"/>
<path d="M125.224 282.375L132.537 282.375L134.411 254.008L125.222 254.195L125.224 282.375Z" fill="#FFB6B6"/>
<path d="M150.281 282.21C150.508 282.593 150.628 283.829 150.628 284.275C150.628 285.644 149.517 286.755 148.146 286.755H125.497C124.562 286.755 123.804 285.997 123.804 285.063V284.121C123.804 284.121 122.683 281.29 124.99 277.8C124.99 277.8 127.857 280.533 132.141 276.253L133.404 273.967L142.549 280.648L147.618 281.271C148.727 281.407 149.71 281.25 150.281 282.21Z" fill="#2F2E41"/>
<path d="M112.143 71.0895C118.084 71.0895 122.901 66.2779 122.901 60.3424C122.901 54.4069 118.084 49.5952 112.143 49.5952C106.201 49.5952 101.384 54.4069 101.384 60.3424C101.384 66.2779 106.201 71.0895 112.143 71.0895Z" fill="#FFB6B6"/>
<path d="M97.2573 149.735L102.314 221.896L105.203 270.244L118.928 269.523L117.483 216.845L120.373 184.372L124.707 269.523H135.631L139.876 150.456L116.4 147.209L97.2573 149.735Z" fill="#2F2E41"/>
<path d="M116.038 68.9139C112.978 71.8563 105.907 69.9054 102.313 68.9139C100.335 68.3682 99.1416 67.8058 98.7017 66.7491C98.3958 66.0145 98.5696 65.318 97.9793 63.8626C97.6336 63.0101 97.4512 62.9465 97.257 62.4194C96.7154 60.95 97.4676 59.6409 97.9793 58.0897C99.047 54.8531 97.7722 54.4897 98.7017 52.3168C100.099 49.0502 103.9 47.7211 105.203 47.2655C107.636 46.4149 109.665 46.5048 110.259 46.5439C114.07 46.7945 116.618 48.7479 117.483 49.4304C119.237 50.8137 120.097 52.2769 121.817 55.2033C123.314 57.7498 123.423 58.727 123.262 59.533C123.016 60.761 122.307 60.7656 121.817 62.4194C121.261 64.2967 121.894 65.2402 121.095 66.0275C120.555 66.5596 120.053 66.3383 118.928 66.7491C117.379 67.3145 116.614 68.36 116.038 68.9139Z" fill="#2F2E41"/>
<path d="M124.707 79.7383C124.707 79.7383 113.871 66.0276 100.146 71.0789L95.7013 79.7383L94.2162 81.1426C87.9864 87.0335 85.088 95.628 86.4794 104.084L92.9227 143.24C92.9227 143.24 92.2004 158.394 97.2569 162.724C97.2569 162.724 104.48 149.013 121.817 155.508C139.154 162.002 142.765 158.394 142.765 158.394L136.987 117.262L124.707 79.7383Z" fill="#2F2E41"/>
<path d="M121.095 81.9028L117.483 89.8406L131.208 136.024L168.77 122.313L163.714 113.654L145.655 118.705C145.655 118.705 131.93 78.2947 121.095 81.9028Z" fill="#2F2E41"/>
<path d="M95.4512 154.425H87.5053L86.0605 96.6963L95.4512 116.18V154.425Z" fill="#2F2E41"/>
<path d="M182.495 110.407C184.291 110.407 185.746 108.953 185.746 107.16C185.746 105.366 184.291 103.913 182.495 103.913C180.7 103.913 179.245 105.366 179.245 107.16C179.245 108.953 180.7 110.407 182.495 110.407Z" fill="#3F3D56"/>
<path d="M204.166 135.663C205.961 135.663 207.417 134.21 207.417 132.416C207.417 130.623 205.961 129.169 204.166 129.169C202.371 129.169 200.916 130.623 200.916 132.416C200.916 134.21 202.371 135.663 204.166 135.663Z" fill="#3F3D56"/>
<path d="M228.726 75.0477C230.521 75.0477 231.977 73.5939 231.977 71.8005C231.977 70.0071 230.521 68.5532 228.726 68.5532C226.931 68.5532 225.476 70.0071 225.476 71.8005C225.476 73.5939 226.931 75.0477 228.726 75.0477Z" fill="#3F3D56"/>
<path d="M264.844 118.345C266.64 118.345 268.095 116.891 268.095 115.097C268.095 113.304 266.64 111.85 264.844 111.85C263.049 111.85 261.594 113.304 261.594 115.097C261.594 116.891 263.049 118.345 264.844 118.345Z" fill="#3F3D56"/>
<path d="M285.793 101.026C287.588 101.026 289.043 99.5719 289.043 97.7785C289.043 95.9851 287.588 94.5312 285.793 94.5312C283.997 94.5312 282.542 95.9851 282.542 97.7785C282.542 99.5719 283.997 101.026 285.793 101.026Z" fill="#3F3D56"/>
<path d="M279.6 28.8821L285.545 31.6953C283.106 28.2959 281.005 22.9869 279.881 18.7622C277.976 22.6975 274.906 27.5126 271.867 30.3888L278.15 28.7741C274.278 47.7294 259.716 61.3374 243.04 61.3374L242.804 62.0221C260.223 62.0221 275.647 48.6027 279.6 28.8821Z" fill="#3F3D56"/>
<path d="M261.628 0H299.191C300.784 0 302.08 1.29489 302.08 2.88646C302.08 4.47803 300.784 5.77291 299.191 5.77291H261.628C260.035 5.77291 258.739 4.47803 258.739 2.88646C258.739 1.29489 260.035 0 261.628 0Z" fill="#1C64F2"/>
<path d="M287.005 166.234C286.609 166.234 286.209 166.146 285.829 165.968C284.89 165.527 284.301 164.646 284.253 163.612L283.863 155.222C283.813 154.145 284.376 153.165 285.333 152.665C286.289 152.165 287.416 152.262 288.274 152.916L293.993 157.286C294.681 157.811 295.074 158.608 295.071 159.472C295.069 160.338 294.671 161.132 293.98 161.653L288.65 165.674C288.158 166.044 287.585 166.234 287.005 166.234Z" fill="#E6E6E6"/>
<path d="M181.561 53.5071C181.561 53.9028 181.473 54.302 181.294 54.6822C180.853 55.6198 179.971 56.2086 178.936 56.2565L170.538 56.6455C169.459 56.6956 168.479 56.1332 167.978 55.1776C167.477 54.2224 167.574 53.0963 168.229 52.2397L172.603 46.526C173.129 45.8389 173.927 45.4464 174.792 45.4492C175.658 45.4517 176.453 45.8492 176.975 46.5394L181 51.8641C181.371 52.3557 181.561 52.9275 181.561 53.5071Z" fill="#E6E6E6"/>
<path d="M228.46 46.0772C224.183 45.0539 219.614 45.9801 215.958 48.3924C212.125 50.9221 209.587 54.9729 208.728 59.4605C206.955 68.7189 212.37 77.9679 220.928 81.6529C229.925 85.5266 240.627 82.9274 247.161 75.7378C250.399 72.1743 252.423 67.6661 253.032 62.8987C253.632 58.2021 252.948 52.7835 250.101 48.8637C247.277 44.9757 242.575 43.6709 238.034 43.0338C233.628 42.4155 227.782 42.1468 225.4 46.8058C224.945 47.6941 224.732 48.6513 224.782 49.6476C224.817 50.3408 225.901 50.345 225.866 49.6476C225.756 47.4693 227.21 45.6491 229.073 44.67C231.233 43.5354 233.837 43.6315 236.193 43.8844C240.445 44.3409 245.272 45.1554 248.338 48.4177C251.393 51.6674 252.308 56.6196 252.119 60.9333C251.921 65.4358 250.368 69.8674 247.647 73.4684C242.277 80.5744 232.882 83.955 224.239 81.6595C215.817 79.4228 215.707 74.4301 215.846 65.5886C215.92 60.8717 211.46 53.4473 215.102 50.3735C218.667 47.3641 223.609 46.0291 228.172 47.121C228.849 47.2832 229.139 46.2397 228.46 46.0772Z" fill="#1C64F2"/>
</g>
<defs>
<clipPath id="clip0_84_8593">
<rect width="379" height="289" fill="white"/>
</clipPath>
</defs>
</svg>
