<svg width="35" height="34" viewBox="0 0 35 34" fill="none" xmlns="http://www.w3.org/2000/svg">
<g clip-path="url(#clip0_219_478)">
<path d="M16.5248 5.95646C17.0205 5.62897 17.6622 5.62558 18.161 5.94782L29.2109 13.0863C30.1094 13.6668 30.1292 14.9771 29.2485 15.5852L18.2007 23.2147C17.684 23.5715 17.0004 23.568 16.4877 23.2059L5.68334 15.5751C4.82034 14.9656 4.84069 13.6762 5.7225 13.0936L16.5248 5.95646Z" stroke="#0063E1" stroke-linejoin="round"/>
<path d="M16.5248 12.1713C17.0205 11.8438 17.6622 11.8404 18.161 12.1627L29.2109 19.3011C30.1094 19.8816 30.1292 21.1919 29.2485 21.8001L18.2007 29.4296C17.684 29.7864 17.0004 29.7829 16.4877 29.4208L5.68334 21.79C4.82034 21.1805 4.84069 19.891 5.7225 19.3084L16.5248 12.1713Z" stroke="#0063E1" stroke-linejoin="round"/>
<path d="M16.5248 9.06389C17.0205 8.73639 17.6622 8.733 18.161 9.05524L29.2109 16.1937C30.1094 16.7742 30.1292 18.0845 29.2485 18.6927L18.2007 26.3221C17.684 26.6789 17.0004 26.6754 16.4877 26.3133L5.68334 18.6825C4.82034 18.073 4.84069 16.7836 5.7225 16.201L16.5248 9.06389Z" stroke="#0063E1" stroke-linejoin="round"/>
</g>
<defs>
<clipPath id="clip0_219_478">
<rect width="35" height="33.0555" fill="white" transform="translate(0 0.472168)"/>
</clipPath>
</defs>
</svg>
